<svg width="84" height="100" viewBox="0 0 84 100" fill="none" xmlns="http://www.w3.org/2000/svg" xmlns:xlink="http://www.w3.org/1999/xlink">
<path d="M81.836,3.125C80.404,4.167 78.874,5.078 77.246,5.859C75.618,6.641 73.991,7.324 72.363,7.91C69.368,9.082 65.397,10.221 60.449,11.328C55.501,12.435 49.609,13.021 42.773,13.086C42.904,14.063 43.115,15.202 43.408,16.504C43.701,17.806 44.141,19.238 44.727,20.801C45.378,22.298 46.11,23.714 46.924,25.049C47.738,26.383 48.665,27.669 49.707,28.906C50.228,28.711 51.074,28.451 52.246,28.125C53.418,27.799 54.85,27.637 56.543,27.637C58.04,27.637 59.684,27.865 61.475,28.32C63.265,28.776 65.104,29.655 66.992,30.957C71.484,34.017 73.991,37.402 74.512,41.113C75.033,44.824 75.293,46.81 75.293,47.07C75.293,47.331 75.212,47.559 75.049,47.754C74.886,47.949 74.674,48.112 74.414,48.242C74.349,48.242 74.023,48.372 73.438,48.633C72.852,48.893 72.07,49.121 71.094,49.316C71.875,50.618 72.559,51.953 73.145,53.32C73.73,54.688 74.219,56.12 74.609,57.617C74.87,58.529 74.528,59.098 73.584,59.326C72.64,59.554 72.038,59.212 71.777,58.301C71.387,56.738 70.85,55.241 70.166,53.809C69.482,52.376 68.685,51.009 67.773,49.707C66.211,49.707 64.453,49.479 62.5,49.023C60.547,48.568 58.561,47.624 56.543,46.191C55.046,45.15 53.792,44.01 52.783,42.773C51.774,41.536 50.977,40.299 50.391,39.062C49.089,38.932 47.9,38.883 46.826,38.916C45.752,38.949 44.857,38.997 44.141,39.062C44.857,40.104 45.866,41.406 47.168,42.969C48.47,44.596 49.984,46.305 51.709,48.096C53.434,49.886 55.306,51.66 57.324,53.418C59.342,55.111 61.426,56.608 63.574,57.91C64.421,58.366 64.6,59.017 64.111,59.863C63.623,60.71 62.956,60.905 62.109,60.449C57.878,57.975 54.02,54.867 50.537,51.123C47.054,47.38 44.434,44.336 42.676,41.992C42.546,44.271 42.887,47.233 43.701,50.879C44.515,54.525 46.615,58.008 50,61.328C52.148,63.542 54.525,65.283 57.129,66.553C59.733,67.822 62.5,68.62 65.43,68.945C66.992,69.076 68.359,69.092 69.531,68.994C70.703,68.896 71.615,68.815 72.266,68.75C72.331,68.359 72.396,67.855 72.461,67.236C72.526,66.618 72.559,65.918 72.559,65.137C72.559,64.225 73.047,63.77 74.023,63.77C75,63.77 75.488,64.258 75.488,65.234C75.488,66.732 75.391,67.936 75.195,68.848C75,69.759 74.902,70.247 74.902,70.312C74.837,70.573 74.707,70.785 74.512,70.947C74.316,71.11 74.121,71.257 73.926,71.387C73.796,71.387 72.933,71.517 71.338,71.777C69.743,72.038 67.708,72.07 65.234,71.875C62.956,71.615 60.254,70.898 57.129,69.727C54.004,68.555 50.911,66.439 47.852,63.379C47.591,63.118 47.347,62.874 47.119,62.646C46.891,62.419 46.68,62.174 46.484,61.914C46.875,63.151 47.298,64.453 47.754,65.82C48.21,67.188 48.665,68.555 49.121,69.922C50.423,70.312 52.393,71.338 55.029,72.998C57.666,74.658 59.701,77.539 61.133,81.641C62.891,86.784 62.891,90.999 61.133,94.287C59.375,97.575 58.431,99.316 58.301,99.512C58.105,99.707 57.894,99.837 57.666,99.902C57.438,99.967 57.194,100 56.934,100C56.738,99.935 54.932,99.17 51.514,97.705C48.096,96.24 45.475,92.904 43.652,87.695C42.155,83.398 42.041,79.688 43.311,76.562C44.58,73.438 45.54,71.452 46.191,70.605C45.801,69.303 45.394,68.018 44.971,66.748C44.548,65.479 44.141,64.258 43.75,63.086C43.49,65.039 42.92,67.155 42.041,69.434C41.162,71.712 39.844,73.958 38.086,76.172C35.417,79.557 32.601,82.015 29.639,83.545C26.676,85.075 24.089,86.1 21.875,86.621C19.401,87.142 17.367,87.354 15.771,87.256C14.176,87.158 13.346,87.109 13.281,87.109C13.021,87.044 12.777,86.93 12.549,86.768C12.321,86.605 12.174,86.426 12.109,86.23C12.109,86.165 11.93,85.547 11.572,84.375C11.214,83.203 10.938,81.673 10.742,79.785C10.677,78.809 11.133,78.288 12.109,78.223C13.086,78.158 13.607,78.581 13.672,79.492C13.737,80.599 13.867,81.559 14.063,82.373C14.258,83.187 14.421,83.822 14.551,84.277C15.202,84.342 16.113,84.342 17.285,84.277C18.457,84.212 19.792,84.017 21.289,83.691C24.219,83.04 26.888,81.934 29.297,80.371C31.706,78.809 33.887,76.79 35.84,74.316C37.598,72.038 38.932,69.564 39.844,66.895C40.755,64.225 41.178,61.393 41.113,58.398C41.113,57.422 41.064,56.527 40.967,55.713C40.869,54.899 40.755,54.167 40.625,53.516C37.76,58.919 34.701,63.46 31.445,67.139C28.19,70.817 26.465,72.754 26.27,72.949C25.618,73.6 24.951,73.584 24.268,72.9C23.584,72.217 23.568,71.549 24.219,70.898C24.219,70.833 25.879,68.929 29.199,65.186C32.52,61.442 35.579,56.901 38.379,51.562C37.728,51.562 36.979,51.611 36.133,51.709C35.286,51.807 34.375,51.953 33.398,52.148C30.534,52.799 27.913,53.874 25.537,55.371C23.161,56.868 21.029,58.822 19.141,61.23C17.839,62.858 16.764,64.583 15.918,66.406C15.072,68.229 14.453,70.117 14.063,72.07C13.867,73.047 13.298,73.438 12.354,73.242C11.409,73.047 11.035,72.461 11.23,71.484C11.686,69.336 12.386,67.236 13.33,65.186C14.274,63.135 15.462,61.198 16.895,59.375C19.499,56.055 22.266,53.662 25.195,52.197C28.125,50.732 30.697,49.74 32.91,49.219C34.017,49.023 35.14,48.861 36.279,48.73C37.419,48.6 38.574,48.568 39.746,48.633L39.746,23.926C39.486,24.447 39.242,24.935 39.014,25.391C38.786,25.846 38.542,26.27 38.281,26.66C38.346,27.507 38.118,30.013 37.598,34.18C37.077,38.346 34.473,42.285 29.785,45.996C24.707,50.033 19.971,51.693 15.576,50.977C11.182,50.26 8.854,49.87 8.594,49.805C8.398,49.674 8.219,49.512 8.057,49.316C7.894,49.121 7.78,48.893 7.715,48.633C7.65,48.438 7.796,46.11 8.154,41.65C8.512,37.191 11.263,32.943 16.406,28.906C18.75,27.018 21.126,25.749 23.535,25.098C25.944,24.447 28.125,24.121 30.078,24.121C31.315,24.121 32.454,24.202 33.496,24.365C34.538,24.528 35.352,24.707 35.938,24.902C36.979,23.079 37.809,21.191 38.428,19.238C39.046,17.285 39.421,15.234 39.551,13.086C35.775,13.021 32.129,12.777 28.613,12.354C25.098,11.93 21.745,11.328 18.555,10.547C17.643,10.286 17.301,9.684 17.529,8.74C17.757,7.796 18.327,7.422 19.238,7.617C22.363,8.398 25.635,9.001 29.053,9.424C32.471,9.847 36.035,10.091 39.746,10.156L39.746,6.836C39.746,5.859 40.234,5.371 41.211,5.371C42.188,5.371 42.676,5.859 42.676,6.836L42.676,10.156C46.973,10.156 50.879,9.896 54.395,9.375C57.975,8.854 61.165,8.236 63.965,7.52C66.764,6.803 69.206,6.055 71.289,5.273C73.372,4.427 75.098,3.646 76.465,2.93L6.445,2.93C7.161,3.32 7.975,3.727 8.887,4.15C9.798,4.574 10.84,4.98 12.012,5.371C12.858,5.697 13.118,6.315 12.793,7.227C12.467,8.138 11.849,8.431 10.938,8.105C9.115,7.454 7.552,6.787 6.25,6.104C4.948,5.42 3.906,4.85 3.125,4.395C1.563,3.483 0.651,2.832 0.391,2.441C0.13,2.051 0,1.725 0,1.465C0,1.074 0.146,0.732 0.439,0.439C0.732,0.146 1.074,0 1.465,0L81.543,0C82.715,0 83.187,0.423 82.959,1.27C82.731,2.116 82.357,2.734 81.836,3.125ZM58.203,43.75C61.263,45.898 64.128,46.891 66.797,46.729C69.466,46.566 71.322,46.289 72.363,45.898C72.298,44.792 71.875,42.952 71.094,40.381C70.312,37.809 68.392,35.482 65.332,33.398C62.598,31.445 59.993,30.501 57.52,30.566C55.046,30.632 53.19,30.859 51.953,31.25C53.385,32.552 54.98,33.773 56.738,34.912C58.496,36.051 60.417,37.044 62.5,37.891C63.346,38.281 63.574,38.932 63.184,39.844C62.793,40.755 62.174,41.016 61.328,40.625C59.44,39.844 57.731,38.981 56.201,38.037C54.671,37.093 53.288,36.1 52.051,35.059C52.376,36.426 53.011,37.907 53.955,39.502C54.899,41.097 56.315,42.513 58.203,43.75ZM47.168,35.938C47.493,35.938 47.835,35.954 48.193,35.986C48.551,36.019 48.893,36.035 49.219,36.035C48.958,35.189 48.779,34.408 48.682,33.691C48.584,32.975 48.535,32.357 48.535,31.836C47.103,30.404 45.915,28.939 44.971,27.441C44.027,25.944 43.262,24.512 42.676,23.145L42.676,36.328C43.132,36.263 43.75,36.182 44.531,36.084C45.312,35.986 46.191,35.938 47.168,35.938ZM46.387,86.719C47.624,90.299 49.365,92.806 51.611,94.238C53.857,95.671 55.501,96.549 56.543,96.875C57.194,95.964 57.959,94.238 58.838,91.699C59.717,89.16 59.538,86.133 58.301,82.617C57.389,79.948 56.152,77.913 54.59,76.514C53.027,75.114 51.595,74.121 50.293,73.535C51.27,76.335 52.197,78.988 53.076,81.494C53.955,84.001 54.753,86.1 55.469,87.793C55.794,88.639 55.501,89.258 54.59,89.648C53.678,90.039 53.06,89.779 52.734,88.867C52.018,87.174 51.204,85.026 50.293,82.422C49.382,79.818 48.438,77.051 47.461,74.121C46.745,75.423 46.159,77.165 45.703,79.346C45.247,81.527 45.475,83.984 46.387,86.719ZM18.164,31.152C16.341,32.65 14.827,34.326 13.623,36.182C12.419,38.037 11.556,40.072 11.035,42.285C10.775,43.392 10.628,44.385 10.596,45.264C10.563,46.143 10.547,46.842 10.547,47.363C11.784,47.689 14.095,47.884 17.48,47.949C20.866,48.014 24.382,46.615 28.027,43.75C29.85,42.318 31.331,40.674 32.471,38.818C33.61,36.963 34.44,34.928 34.961,32.715C35.026,32.389 35.091,32.08 35.156,31.787C35.221,31.494 35.254,31.217 35.254,30.957C34.798,31.543 34.326,32.096 33.838,32.617C33.35,33.138 32.845,33.626 32.324,34.082C29.85,36.426 27.555,38.135 25.439,39.209C23.324,40.283 22.201,40.82 22.07,40.82C21.224,41.211 20.622,40.951 20.264,40.039C19.906,39.128 20.15,38.477 20.996,38.086C21.061,38.086 22.054,37.598 23.975,36.621C25.895,35.645 28.027,34.082 30.371,31.934C31.087,31.217 31.771,30.485 32.422,29.736C33.073,28.988 33.691,28.223 34.277,27.441C32.65,27.116 30.339,27.051 27.344,27.246C24.349,27.441 21.289,28.743 18.164,31.152Z" fill="#FFFFFF"/>
</svg>
