<svg width="94" height="84" viewBox="0 0 94 84" fill="none" xmlns="http://www.w3.org/2000/svg" xmlns:xlink="http://www.w3.org/1999/xlink">
<path d="M19.531,9.188C22.331,9.188 24.723,10.18 26.709,12.166C28.695,14.152 29.688,16.544 29.688,19.344C29.688,22.143 28.695,24.536 26.709,26.522C24.723,28.507 22.331,29.5 19.531,29.5C16.732,29.5 14.339,28.507 12.354,26.522C10.368,24.536 9.375,22.143 9.375,19.344C9.375,16.544 10.368,14.152 12.354,12.166C14.339,10.18 16.732,9.188 19.531,9.188ZM19.531,26.375C21.484,26.375 23.145,25.691 24.512,24.324C25.879,22.957 26.562,21.297 26.562,19.344C26.562,17.391 25.879,15.73 24.512,14.363C23.145,12.996 21.484,12.313 19.531,12.313C17.578,12.313 15.918,12.996 14.551,14.363C13.184,15.73 12.5,17.391 12.5,19.344C12.5,21.297 13.184,22.957 14.551,24.324C15.918,25.691 17.578,26.375 19.531,26.375ZM73.633,7.625C75.391,7.625 76.904,8.26 78.174,9.529C79.443,10.799 80.078,12.313 80.078,14.07C80.078,15.828 79.443,17.342 78.174,18.611C76.904,19.881 75.391,20.516 73.633,20.516C71.875,20.516 70.361,19.881 69.092,18.611C67.822,17.342 67.188,15.828 67.188,14.07C67.188,12.313 67.822,10.799 69.092,9.529C70.361,8.26 71.875,7.625 73.633,7.625ZM73.633,17.391C74.544,17.391 75.326,17.065 75.977,16.414C76.628,15.763 76.953,14.982 76.953,14.07C76.953,13.159 76.628,12.378 75.977,11.727C75.326,11.076 74.544,10.75 73.633,10.75C72.721,10.75 71.94,11.076 71.289,11.727C70.638,12.378 70.312,13.159 70.312,14.07C70.312,14.982 70.638,15.763 71.289,16.414C71.94,17.065 72.721,17.391 73.633,17.391ZM89.062,23.25L87.5,23.25L87.5,36.043C87.5,38.517 86.605,40.649 84.814,42.44C83.024,44.23 80.892,45.125 78.418,45.125L70.312,45.125L70.312,51.375C70.312,51.831 70.166,52.205 69.873,52.498C69.58,52.791 69.206,52.938 68.75,52.938L67.188,52.938L67.188,59.871L71.191,62.606C71.387,62.736 71.549,62.915 71.68,63.142C71.81,63.37 71.875,63.614 71.875,63.875C71.875,64.331 71.729,64.705 71.436,64.998C71.143,65.291 70.768,65.438 70.312,65.438C70.117,65.438 69.954,65.421 69.824,65.389C69.694,65.356 69.564,65.275 69.434,65.144L64.746,62.019C64.551,61.889 64.388,61.71 64.258,61.483C64.128,61.255 64.062,61.011 64.062,60.75L64.062,52.938L62.5,52.938C62.044,52.938 61.67,52.791 61.377,52.498C61.084,52.205 60.938,51.831 60.938,51.375L60.938,45.125L57.422,45.125L48.926,73.348C49.251,73.478 49.512,73.673 49.707,73.934C49.902,74.194 50,74.487 50,74.813L50,78.328C50,79.5 49.577,80.509 48.73,81.356C47.884,82.202 46.875,82.625 45.703,82.625L16.797,82.625C15.625,82.625 14.616,82.202 13.77,81.356C12.923,80.509 12.5,79.5 12.5,78.328L12.5,74.813C12.5,74.422 12.614,74.096 12.842,73.836C13.07,73.576 13.346,73.413 13.672,73.348L7.91,48.934L0.391,39.851C0.26,39.721 0.163,39.575 0.098,39.412C0.033,39.249 0,39.07 0,38.875C0,38.419 0.146,38.045 0.439,37.752C0.732,37.459 1.107,37.313 1.563,37.313L9.375,37.313C9.57,37.313 9.766,37.361 9.961,37.459C10.156,37.557 10.319,37.671 10.449,37.801L12.305,39.559L13.379,37.801C9.473,36.499 6.266,34.171 3.76,30.818C1.253,27.465 0,23.641 0,19.344C0,16.609 0.521,14.07 1.563,11.727C2.539,9.383 3.923,7.316 5.713,5.525C7.503,3.735 9.57,2.352 11.914,1.375C14.258,0.333 16.797,-0.188 19.531,-0.188C23.958,-0.188 27.881,1.131 31.299,3.768C34.717,6.404 37.012,9.741 38.184,13.777L38.281,13.875L59.375,13.875C59.44,9.969 60.856,6.648 63.623,3.914C66.39,1.18 69.727,-0.188 73.633,-0.188C77.539,-0.188 80.876,1.18 83.643,3.914C86.41,6.648 87.826,9.969 87.891,13.875L89.062,13.875C90.365,13.875 91.471,14.331 92.383,15.242C93.294,16.154 93.75,17.26 93.75,18.563C93.75,19.864 93.294,20.971 92.383,21.883C91.471,22.794 90.365,23.25 89.062,23.25ZM78.418,42C80.046,42 81.445,41.414 82.617,40.242C83.789,39.07 84.375,37.671 84.375,36.043L84.375,23.348C83.073,24.845 81.494,26.049 79.639,26.961C77.783,27.872 75.781,28.328 73.633,28.328C73.047,28.328 72.461,28.296 71.875,28.231C71.289,28.165 70.736,28.035 70.215,27.84L70.312,27.938L70.312,42L78.418,42ZM64.062,49.813L67.188,49.813L67.188,26.766C66.602,26.44 66.048,26.098 65.527,25.74C65.007,25.382 64.518,25.008 64.062,24.617L64.062,49.813ZM54.102,17L50.781,23.25L54.688,23.25L54.688,17L54.102,17ZM11.328,49.813L16.895,73.25L20.312,73.25L20.312,49.813L11.328,49.813ZM23.438,73.25L26.562,73.25L26.562,49.813L23.438,49.813L23.438,73.25ZM29.688,73.25L45.703,73.25L54.102,45.125L51.172,45.125C51.107,45.125 51.042,45.125 50.977,45.125C50.911,45.125 50.879,45.125 50.879,45.125L48.633,48.445L49.414,48.934C49.609,49.064 49.756,49.243 49.854,49.471C49.951,49.698 50,49.943 50,50.203C50,50.659 49.854,51.033 49.561,51.326C49.268,51.619 48.893,51.766 48.438,51.766C48.242,51.766 48.063,51.733 47.9,51.668C47.738,51.603 47.591,51.538 47.461,51.473L42.773,47.957C42.578,47.827 42.432,47.648 42.334,47.42C42.236,47.192 42.188,46.948 42.188,46.688C42.188,46.232 42.334,45.858 42.627,45.565C42.92,45.272 43.294,45.125 43.75,45.125C43.945,45.125 44.124,45.158 44.287,45.223C44.45,45.288 44.596,45.353 44.727,45.418L46.191,46.492L47.754,44.051C47.038,43.53 46.452,42.846 45.996,42C45.54,41.154 45.312,40.242 45.312,39.266L45.312,33.699L37.305,48.934C37.174,49.194 36.995,49.405 36.768,49.568C36.54,49.731 36.263,49.813 35.938,49.813L29.688,49.813L29.688,73.25ZM51.172,42L54.688,42L54.688,38.875L48.438,38.875L48.438,39.266C48.438,40.047 48.698,40.698 49.219,41.219C49.74,41.739 50.391,42 51.172,42ZM48.438,35.75L54.688,35.75L54.688,32.625L48.438,32.625L48.438,35.75ZM48.438,27.742C48.438,27.807 48.438,27.856 48.438,27.889C48.438,27.921 48.438,27.938 48.438,27.938L48.438,29.5L54.688,29.5L54.688,26.375L49.121,26.375L48.438,27.742ZM15.625,78.328C15.625,78.654 15.739,78.93 15.967,79.158C16.195,79.386 16.471,79.5 16.797,79.5L45.703,79.5C46.029,79.5 46.305,79.386 46.533,79.158C46.761,78.93 46.875,78.654 46.875,78.328L46.875,76.375L15.625,76.375L15.625,78.328ZM3.32,16.902L7.227,19.539C7.487,19.734 7.682,19.946 7.813,20.174C7.943,20.402 8.008,20.646 8.008,20.906C8.008,21.297 7.845,21.655 7.52,21.981C7.194,22.306 6.836,22.469 6.445,22.469C6.25,22.469 6.087,22.436 5.957,22.371C5.827,22.306 5.697,22.241 5.566,22.176L3.223,20.613C3.353,22.241 3.695,23.771 4.248,25.203C4.801,26.636 5.534,27.938 6.445,29.109L6.348,29.109L11.035,28.133C11.1,28.133 11.149,28.133 11.182,28.133C11.214,28.133 11.263,28.133 11.328,28.133C11.784,28.133 12.158,28.279 12.451,28.572C12.744,28.865 12.891,29.239 12.891,29.695C12.891,30.086 12.777,30.428 12.549,30.721C12.321,31.014 12.012,31.193 11.621,31.258L8.887,31.746C9.993,32.723 11.247,33.536 12.646,34.188C14.046,34.839 15.495,35.294 16.992,35.555L17.09,35.555L19.727,31.551C19.922,31.356 20.133,31.193 20.361,31.063C20.589,30.932 20.833,30.867 21.094,30.867C21.484,30.867 21.842,31.014 22.168,31.307C22.493,31.6 22.656,31.974 22.656,32.43C22.656,32.625 22.624,32.788 22.559,32.918C22.493,33.048 22.428,33.178 22.363,33.309L20.801,35.652C22.428,35.522 23.958,35.18 25.391,34.627C26.823,34.073 28.125,33.341 29.297,32.43L28.32,27.84C28.32,27.775 28.32,27.71 28.32,27.644C28.32,27.579 28.32,27.514 28.32,27.449C28.32,27.059 28.467,26.701 28.76,26.375C29.053,26.049 29.427,25.887 29.883,25.887C30.273,25.887 30.615,26.017 30.908,26.277C31.201,26.538 31.38,26.831 31.445,27.156L31.934,29.988C32.91,28.816 33.724,27.547 34.375,26.18C35.026,24.813 35.482,23.348 35.742,21.785L35.742,21.688L31.738,19.051C31.543,18.921 31.38,18.742 31.25,18.514C31.12,18.286 31.055,18.042 31.055,17.781C31.055,17.326 31.201,16.951 31.494,16.658C31.787,16.365 32.161,16.219 32.617,16.219C32.747,16.219 32.894,16.235 33.057,16.268C33.219,16.3 33.366,16.349 33.496,16.414L35.84,18.074C35.71,16.447 35.368,14.917 34.814,13.484C34.261,12.052 33.529,10.717 32.617,9.48L32.617,9.578L28.027,10.457C27.962,10.457 27.897,10.473 27.832,10.506C27.767,10.538 27.702,10.555 27.637,10.555C27.246,10.555 26.888,10.392 26.562,10.066C26.237,9.741 26.074,9.383 26.074,8.992C26.074,8.602 26.204,8.26 26.465,7.967C26.725,7.674 27.018,7.495 27.344,7.43L30.176,6.844C29.004,5.867 27.734,5.07 26.367,4.451C25,3.833 23.535,3.393 21.973,3.133L21.875,3.133L19.238,7.039C19.108,7.299 18.929,7.495 18.701,7.625C18.473,7.755 18.229,7.82 17.969,7.82C17.513,7.82 17.139,7.658 16.846,7.332C16.553,7.007 16.406,6.648 16.406,6.258C16.406,6.063 16.423,5.9 16.455,5.77C16.488,5.639 16.536,5.509 16.602,5.379L18.262,3.035C16.634,3.165 15.104,3.507 13.672,4.061C12.24,4.614 10.905,5.346 9.668,6.258L9.766,6.16L10.645,10.848C10.645,10.913 10.661,10.962 10.693,10.994C10.726,11.027 10.742,11.076 10.742,11.141C10.742,11.596 10.579,11.971 10.254,12.264C9.928,12.557 9.57,12.703 9.18,12.703C8.789,12.703 8.447,12.589 8.154,12.361C7.861,12.133 7.682,11.824 7.617,11.434L7.031,8.699C6.055,9.806 5.257,11.059 4.639,12.459C4.02,13.859 3.581,15.307 3.32,16.805L3.32,16.902ZM19.531,38.875C19.01,38.875 18.506,38.842 18.018,38.777C17.529,38.712 17.025,38.647 16.504,38.582L16.602,38.582L15.43,40.438L31.836,40.438L44.238,17L38.867,17C38.932,17.326 38.981,17.684 39.014,18.074C39.046,18.465 39.062,18.888 39.062,19.344C39.062,22.013 38.542,24.552 37.5,26.961C36.458,29.305 35.059,31.356 33.301,33.113C31.543,34.871 29.492,36.271 27.148,37.313C24.74,38.354 22.201,38.875 19.531,38.875ZM47.852,17L34.18,42.684C34.049,42.944 33.87,43.155 33.643,43.318C33.415,43.481 33.138,43.563 32.812,43.563L12.5,43.563C12.305,43.563 12.109,43.514 11.914,43.416C11.719,43.318 11.556,43.204 11.426,43.074L8.691,40.438L4.883,40.438L10.059,46.688L34.961,46.688L50.586,17L47.852,17ZM57.812,42L60.938,42L60.938,20.516C60.677,19.995 60.433,19.441 60.205,18.855C59.977,18.27 59.798,17.684 59.668,17.098L59.668,17L57.812,17L57.812,42ZM62.793,11.727L64.746,13.094C64.941,13.289 65.104,13.484 65.234,13.68C65.365,13.875 65.43,14.103 65.43,14.363C65.43,14.819 65.283,15.193 64.99,15.486C64.697,15.779 64.323,15.926 63.867,15.926C63.737,15.926 63.59,15.91 63.428,15.877C63.265,15.844 63.118,15.796 62.988,15.73L62.598,15.438C62.728,16.284 62.939,17.098 63.232,17.879C63.525,18.66 63.9,19.409 64.355,20.125L64.258,20.125L66.699,19.637C66.764,19.637 66.813,19.637 66.846,19.637C66.878,19.637 66.927,19.637 66.992,19.637C67.448,19.637 67.822,19.783 68.115,20.076C68.408,20.369 68.555,20.744 68.555,21.199C68.555,21.59 68.424,21.932 68.164,22.225C67.904,22.517 67.611,22.697 67.285,22.762L66.797,22.859C67.448,23.315 68.132,23.722 68.848,24.08C69.564,24.438 70.345,24.715 71.191,24.91L71.289,24.91L72.656,22.859C72.852,22.664 73.047,22.501 73.242,22.371C73.438,22.241 73.665,22.176 73.926,22.176C74.382,22.176 74.756,22.339 75.049,22.664C75.342,22.989 75.488,23.348 75.488,23.738C75.488,23.934 75.472,24.113 75.439,24.275C75.407,24.438 75.358,24.585 75.293,24.715L75,25.106C75.846,24.975 76.66,24.764 77.441,24.471C78.223,24.178 78.971,23.803 79.688,23.348L79.199,21.004C79.199,20.939 79.199,20.874 79.199,20.809C79.199,20.744 79.199,20.711 79.199,20.711C79.199,20.255 79.346,19.881 79.639,19.588C79.932,19.295 80.306,19.148 80.762,19.148C81.152,19.148 81.494,19.262 81.787,19.49C82.08,19.718 82.259,20.027 82.324,20.418L82.422,20.906C82.878,20.255 83.285,19.555 83.643,18.807C84.001,18.058 84.277,17.293 84.473,16.512L84.473,16.414L82.422,14.949C82.227,14.819 82.064,14.64 81.934,14.412C81.803,14.184 81.738,13.94 81.738,13.68C81.738,13.289 81.901,12.931 82.227,12.605C82.552,12.28 82.91,12.117 83.301,12.117C83.496,12.117 83.675,12.15 83.838,12.215C84.001,12.28 84.147,12.345 84.277,12.41L84.668,12.703C84.538,11.792 84.326,10.945 84.033,10.164C83.74,9.383 83.366,8.667 82.91,8.016L80.566,8.504C80.501,8.504 80.452,8.504 80.42,8.504C80.387,8.504 80.339,8.504 80.273,8.504C79.818,8.504 79.443,8.341 79.15,8.016C78.857,7.69 78.711,7.332 78.711,6.941C78.711,6.551 78.825,6.209 79.053,5.916C79.281,5.623 79.59,5.444 79.98,5.379L80.469,5.281C79.818,4.826 79.118,4.419 78.369,4.061C77.62,3.702 76.855,3.426 76.074,3.23L75.977,3.23L74.512,5.184C74.382,5.379 74.202,5.542 73.975,5.672C73.747,5.802 73.503,5.867 73.242,5.867C72.852,5.867 72.493,5.721 72.168,5.428C71.842,5.135 71.68,4.76 71.68,4.305C71.68,4.174 71.712,4.028 71.777,3.865C71.842,3.702 71.908,3.556 71.973,3.426L72.266,3.035C71.354,3.165 70.508,3.377 69.727,3.67C68.945,3.963 68.229,4.337 67.578,4.793L67.578,4.695L68.066,7.137C68.066,7.202 68.066,7.251 68.066,7.283C68.066,7.316 68.066,7.365 68.066,7.43C68.066,7.82 67.904,8.178 67.578,8.504C67.253,8.829 66.895,8.992 66.504,8.992C66.113,8.992 65.771,8.862 65.479,8.602C65.186,8.341 65.007,8.048 64.941,7.723L64.844,7.234C64.388,7.82 63.981,8.488 63.623,9.236C63.265,9.985 62.988,10.783 62.793,11.629L62.793,11.727ZM89.062,17L87.598,17C87.467,17.586 87.305,18.139 87.109,18.66C86.914,19.181 86.686,19.702 86.426,20.223L86.523,20.125L89.062,20.125C89.518,20.125 89.893,19.978 90.186,19.686C90.479,19.393 90.625,19.018 90.625,18.563C90.625,18.107 90.479,17.732 90.186,17.439C89.893,17.146 89.518,17 89.062,17ZM75,32.625C75.456,32.625 75.83,32.772 76.123,33.065C76.416,33.358 76.562,33.732 76.562,34.188L76.562,37.313C76.562,37.768 76.416,38.142 76.123,38.435C75.83,38.728 75.456,38.875 75,38.875C74.544,38.875 74.17,38.728 73.877,38.435C73.584,38.142 73.438,37.768 73.438,37.313L73.438,34.188C73.438,33.732 73.584,33.358 73.877,33.065C74.17,32.772 74.544,32.625 75,32.625ZM79.688,32.625C80.143,32.625 80.518,32.772 80.811,33.065C81.104,33.358 81.25,33.732 81.25,34.188L81.25,37.313C81.25,37.768 81.104,38.142 80.811,38.435C80.518,38.728 80.143,38.875 79.688,38.875C79.232,38.875 78.857,38.728 78.564,38.435C78.271,38.142 78.125,37.768 78.125,37.313L78.125,34.188C78.125,33.732 78.271,33.358 78.564,33.065C78.857,32.772 79.232,32.625 79.688,32.625Z" fill="#FFFFFF"/>
</svg>
